<svg width="297" height="297" viewBox="0 0 297 297" fill="none" xmlns="http://www.w3.org/2000/svg">
<path d="M109.243 83.8387C113.061 85.6978 116.746 89.9472 118.107 94.0639C121.659 104.82 118.074 127.794 109.011 152.128C107.849 155.216 106.62 158.436 106.288 159.233L105.658 160.693L103.334 157.241C93.2745 142.434 87.6639 127.561 86.7676 113.452C86.2364 104.953 88.3943 95.757 92.2785 89.9804C96.7935 83.2411 103.3 80.884 109.243 83.8387Z" fill="#1E1E1E"/>
<path fill-rule="evenodd" clip-rule="evenodd" d="M0 40C0 17.9086 17.9086 0 40 0H257C279.091 0 297 17.9086 297 40V257C297 279.091 279.091 297 257 297H40C17.9086 297 0 279.091 0 257V40ZM98.6858 72.6176C90.9174 74.6427 83.6469 81.548 79.9951 90.3788C73.4549 106.082 75.1813 125.768 84.9416 146.518C88.0623 153.19 93.9384 162.818 98.553 168.893C99.6486 170.354 100.545 171.682 100.545 171.881C100.545 172.08 99.2502 174.803 97.6899 177.923C90.9838 191.369 83.0493 203.652 74.9157 213.28C72.1602 216.6 71.8282 217.297 72.0606 219.521C72.3926 222.243 74.4509 224.003 77.3724 224.003C79.3975 224.003 80.5262 223.173 83.6469 219.455C91.5814 209.894 99.0178 198.473 105.99 185.161L108.679 180.015L110.505 180.745C113.094 181.841 116.845 181.708 119.601 180.413C122.39 179.119 126.174 175.168 130.922 168.561C138.391 158.237 141.91 154.286 143.603 154.286C144.666 154.286 146.425 155.581 147.654 157.274L148.583 158.535L147.654 161.324C146.127 165.939 145.629 169.159 145.728 173.475C145.861 176.927 145.961 177.591 146.791 179.218C148.417 182.538 151.77 184.829 154.991 184.829C156.816 184.829 159.373 183.8 160.8 182.472C162.958 180.48 163.722 178.421 163.888 174.139C164.054 169.757 163.655 167.233 161.896 162.021L160.535 158.004L161.464 156.378C164.784 150.667 169.897 146.318 173.283 146.318C174.976 146.318 176.603 147.646 181.151 152.892C189.251 162.187 193.202 164.976 199.709 165.906C205.851 166.769 213.42 163.847 220.757 157.805C223.313 155.68 224.044 154.452 224.044 152.228C224.044 149.373 221.886 147.314 218.865 147.314C217.039 147.314 217.005 147.314 212.059 151.066C207.776 154.286 203.361 155.88 200.506 155.249C197.219 154.518 195.028 152.759 189.517 146.285C184.869 140.874 182.346 138.65 179.226 137.089C176.835 135.894 176.669 135.861 173.084 135.861C169.864 135.894 169.166 135.994 167.274 136.79C163.157 138.517 158.742 142.102 155.422 146.418L153.961 148.31L152.567 147.148C151.804 146.484 150.21 145.455 149.015 144.891C147.023 143.895 146.625 143.828 143.537 143.828C140.549 143.828 140.018 143.928 138.225 144.791C135.271 146.219 130.523 151.199 125.112 158.569C116.779 169.923 115.518 171.317 114.024 170.62L113.227 170.255L116.148 163.017C121.427 149.97 125.344 137.355 127.602 126.233C129.494 116.938 129.892 113.12 129.892 104.986C129.892 97.0185 129.395 93.5659 127.668 89.2833C124.415 81.216 116.746 74.2443 109.177 72.4848C106.255 71.7876 101.607 71.854 98.6858 72.6176ZM121.593 212.88C121.128 210.39 122.39 207.834 124.614 206.871C125.411 206.506 132.349 206.439 162.527 206.506L162.546 206.506C199.377 206.572 199.444 206.572 200.373 207.269C203.627 209.693 203.627 213.743 200.373 216.166C199.444 216.863 199.377 216.864 162.887 216.963L162.859 216.963C137.794 217.03 125.876 216.963 125.046 216.698C123.552 216.266 121.892 214.44 121.593 212.88Z" fill="#1E1E1E"/>
</svg>
